# xmcd
#
# Track frame offsets: 
#        150
#        19577
#        47405
#        71017
#        101560
#        129760
#        146855
#        170305
#
# Disc length: 2441 seconds
#
# Revision: 0
# Processed by: cddbd v1.5.2PL0 Copyright (c) Steve Scherf et al.
# Submitted via: ExactAudioCopy v1.3
#
DISCID=63098708
DTITLE=Whispers - Innocent (Promo CDS)
DYEAR=1990
DGENRE=Funk
TTITLE0=Innocent (7" Edit)
TTITLE1=Innocent (Extended Mix) 
TTITLE2=Innocent (Club Edit ) 
TTITLE3=Innocent (Heat Of The Heat Mix) 
TTITLE4=Innocent (Midnight and You Mix)  
TTITLE5=Innocent (Bang A Gong Mix )
TTITLE6=Innocent (Instrumental)
TTITLE7=Innocent (Whispers Groove) 
EXTD=
EXTT0=
EXTT1=
EXTT2=
EXTT3=
EXTT4=
EXTT5=
EXTT6=
EXTT7=
PLAYORDER=
